<svg style="max-height: 500px" xmlns="http://www.w3.org/2000/svg" version="1.1" viewBox="0 0 104.23458957798165 95.63011956521738" width="104.23458957798165" height="95.63011956521738">
  <defs>
    <style>
      .cls-1 {
        fill: #fff;
      }
    </style>
  </defs>
  
  <g>
    <g id="Ebene_1">
      <g>
        <g>
          <path class="cls-1" d="M51.12,27.25c-9.18,0-16.65,7.26-16.65,16.19s7.47,16.19,16.65,16.19,16.66-7.26,16.66-16.19-7.47-16.19-16.66-16.19ZM60.27,43.44c0,4.88-4.11,8.85-9.15,8.85s-9.15-3.97-9.15-8.85,4.1-8.85,9.15-8.85,9.15,3.97,9.15,8.85Z"/>
          <path class="cls-1" d="M51.11.03h-.52c-13.54.14-26.25,5.35-35.78,14.7C5.26,24.08,0,36.49,0,49.66c0,8.83,2.42,17.5,6.99,25.07,4.43,7.34,10.78,13.5,18.34,17.79,1.94,1.1,4.13,1.68,6.34,1.68,7.01,0,12.7-5.55,12.7-12.37v-4.63c0-3.59,3.02-6.51,6.74-6.51s6.74,2.92,6.74,6.51v4.63c0,6.81,5.7,12.36,12.71,12.36,2.24,0,4.46-.59,6.42-1.71,7.63-4.35,14-10.58,18.42-18.02,4.57-7.68,6.93-16.46,6.82-25.38C101.92,22.04,78.98.03,51.11.03ZM51.12,63.36c-7.85,0-14.24,6.21-14.24,13.85v4.63c0,3.11-2.7,5.04-5.2,5.04-.9,0-1.77-.23-2.57-.69-13.33-7.57-21.6-21.57-21.6-36.52C7.5,26.58,26.87,7.6,50.67,7.37c.15,0,.29,0,.44,0,23.78,0,43.35,18.75,43.62,41.8.18,15.13-8.07,29.3-21.53,36.98-.82.47-1.71.71-2.64.71-2.5,0-5.21-1.92-5.21-5.02v-4.63c0-7.63-6.39-13.85-14.24-13.85Z"/>
        </g>
        <g>
          <path class="cls-1" d="M186.72,55.5c-3.93,0-6.65-2.19-6.65-6.87,0-6.57-1.13-25.52-1.96-30.66-.68,1.66-1.66,3.78-2.42,6.12l-7.25,22.2c-1.21,3.7-2.79,7.17-4.23,9.21h-2.79c-3.4,0-6.42-2.64-8.31-8.23l-7.4-21.82c-.91-2.64-2.11-5.74-2.87-7.55-1.36,7.4-2.27,28.17-2.27,37.61h-3.62c-3.85,0-6.49-2.49-6.49-6.87,0-11.55,2.27-34.59,4.15-44.86h2.19c7.17,0,12.23,3.25,14.2,8.76l7.17,20.24c1.59,4.38,2.49,7.48,2.94,9.82.38-1.96.91-3.55,1.44-5.29l5.97-18.35c2.64-8.23,5.97-13.44,8.08-15.18h1.21c5.74,0,9.52,3.62,10.35,10.72.98,8.16,2.49,30.66,2.49,41.01h-3.93Z"/>
          <path class="cls-1" d="M214.89,39.49h-6.65c.76,5.14,5.44,8.38,11.4,8.38,4.23,0,9.21-.83,12.46-3.85h.38v3.17c0,5.21-3.55,9.21-14.73,9.21-10.12,0-20.01-8-20.01-20.47,0-13.59,8.31-22.13,19.94-22.13,8.46,0,16.31,6.04,16.31,15.78,0,7.48-5.66,9.89-19.11,9.89ZM216.77,22.28c-4.91,0-8.31,4-8.53,8.68l-.08,1.36h4.53c9.59,0,11.78-1.06,11.78-3.93,0-4.08-3.02-6.12-7.7-6.12Z"/>
          <path class="cls-1" d="M248.04,11.86c-3.25,0-5.89-2.72-5.89-5.97s2.64-5.89,5.89-5.89,5.97,2.64,5.97,5.89-2.72,5.97-5.97,5.97ZM255.21,55.88c-7.85,0-12.16-4.46-12.16-12.69V15.63h2.87c4.53,0,7.25,2.42,7.25,7.55v19.03c0,4.08,1.74,5.36,6.19,5.36h1.89v2.19c0,4.38-1.74,6.12-6.04,6.12Z"/>
          <path class="cls-1" d="M300.07,55.5c-4.53,0-7.4-2.87-7.4-6.65v-16.16c0-6.87-3.02-9.89-8.23-9.89-4.38,0-7.4,3.32-7.4,9.14v23.56h-3.02c-4.3,0-7.1-2.87-7.1-6.65v-17.6c0-8.61,5.66-17.44,18.35-17.44,9.59,0,17.52,6.42,17.52,17.97v23.71h-2.72Z"/>
          <path class="cls-1" d="M327.86,39.49h-6.65c.76,5.14,5.44,8.38,11.4,8.38,4.23,0,9.21-.83,12.46-3.85h.38v3.17c0,5.21-3.55,9.21-14.73,9.21-10.12,0-20.01-8-20.01-20.47,0-13.59,8.31-22.13,19.94-22.13,8.46,0,16.31,6.04,16.31,15.78,0,7.48-5.66,9.89-19.11,9.89ZM329.75,22.28c-4.91,0-8.31,4-8.53,8.68l-.08,1.36h4.53c9.59,0,11.78-1.06,11.78-3.93,0-4.08-3.02-6.12-7.7-6.12Z"/>
          <path class="cls-1" d="M403.31,7.02c0,2.42-1.81,5.36-5.89,5.36h-15.93v12.84h18.65v3.1c0,3.32-2.64,5.13-4.98,5.13h-13.29v22.05h-4.3c-3.78,0-6.04-1.96-6.04-6.04V11.78c0-6.42,2.57-8,8.61-8h23.18v3.25Z"/>
          <path class="cls-1" d="M424.38,56.18h-2.04c-9.67,0-16.31-5.44-16.31-12.91s5.29-12.76,20.24-12.76h3.55v-.53c0-5.74-2.72-7.48-8.76-7.48-7.33,0-11.4,2.79-12.91,4.68h-.38v-3.25c0-4.53,4.08-9.97,14.8-9.97,9.06,0,17.22,4.23,17.22,18.27v9.36c0,8.61-6.34,14.57-15.41,14.57ZM429.89,37.76h-3.62c-7.7,0-9.89,1.81-9.89,5.13s2.57,5.06,7.02,5.06,6.49-2.11,6.49-6.27v-3.93Z"/>
          <path class="cls-1" d="M478.6,27.87c-1.36-2.34-5.21-4.23-11.03-4.23s-11.1,4.76-11.1,10.8c0,7.4,4.38,12.46,11.25,12.46,5.81,0,9.29-1.89,10.72-3.78h.38v4.68c0,4.91-4.76,8.46-12.08,8.46-11.18,0-20.84-8.68-20.84-20.31s8.08-21.6,21.98-21.6c6.49,0,11.1,3.93,11.1,8.76v4.76h-.38Z"/>
          <path class="cls-1" d="M519.23,55.5c-4.23,0-6.87-2.42-6.87-6.8v-16.61c0-6.65-3.62-9.29-8.08-9.29-3.17,0-7.32,2.42-7.32,9.59v23.11h-3.32c-4.76,0-6.95-2.64-6.95-6.8V1.13h3.17c4.83,0,7.17,2.72,7.17,6.49v11.63c1.51-2.42,4.98-5.44,8.83-5.44,10.5,0,16.69,6.27,16.69,17.82v23.86h-3.32Z"/>
          <path class="cls-1" d="M542.94,7.85v24.32c5.97-8,9.06-11.55,12.46-14.8,2.42-2.27,4.83-2.64,8.08-2.64h5.81v.38c-2.87,2.42-12.31,13.14-16.54,18.5,3.25,4,6.42,8.16,10.04,11.86,3.7,3.7,5.36,4.46,7.85,5.29-1.06,3.25-2.72,4.98-6.87,4.98-2.27,0-4.91-1.06-6.65-2.79-5.21-5.36-9.74-11.4-14.2-17.37v19.94h-3.47c-4.53,0-6.72-2.49-6.72-7.17V1.13h3.25c4.91,0,6.95,2.79,6.95,6.72Z"/>
          <path class="cls-1" d="M598.68,24.62c-1.51-.6-3.25-1.21-5.89-1.21-4.53,0-7.02,2.49-7.02,8.68v23.41h-2.79c-4.53,0-7.4-2.27-7.4-6.49v-18.73c0-8.16,4.3-15.93,15.03-15.93,6.27,0,8.46,3.55,8.46,6.65v3.62h-.38Z"/>
          <path class="cls-1" d="M621.26,56.18h-2.04c-9.67,0-16.31-5.44-16.31-12.91s5.29-12.76,20.24-12.76h3.55v-.53c0-5.74-2.72-7.48-8.76-7.48-7.33,0-11.4,2.79-12.91,4.68h-.38v-3.25c0-4.53,4.08-9.97,14.8-9.97,9.06,0,17.22,4.23,17.22,18.27v9.36c0,8.61-6.34,14.57-15.41,14.57ZM626.77,37.76h-3.62c-7.7,0-9.89,1.81-9.89,5.13s2.57,5.06,7.02,5.06,6.49-2.11,6.49-6.27v-3.93Z"/>
          <path class="cls-1" d="M668,10.19c-1.59-.53-3.4-.91-5.89-.91-4.15,0-7.25,1.43-7.25,6.87v3.62h11.63v2.79c0,3.62-3.85,5.74-7.25,5.74h-4.38v27.19h-4.08c-3.25,0-6.12-2.49-6.12-6.04V15.33c0-5.74,4-14.95,15.86-14.95,4.38,0,7.78,2.42,7.78,6.42v3.4h-.3Z"/>
          <path class="cls-1" d="M675.79,8.31c1.36-1.59,3.17-2.79,4.76-2.79h2.34v9.21h14.12v4.15c0,2.11-1.89,4.83-6.04,4.83h-8.08v15.93c0,5.29,2.34,7.33,6.42,7.33,3.25,0,5.74-.45,7.33-1.43h.38v3.62c0,4.15-3.02,6.8-8.91,6.8-10.27,0-15.25-5.59-15.25-15.1v-24.47c0-4,.75-5.51,2.95-8.08Z"/>
          <path class="cls-1" d="M774.94,55.5c-3.93,0-6.65-2.19-6.65-6.87,0-6.57-1.13-25.52-1.96-30.66-.68,1.66-1.66,3.78-2.42,6.12l-7.25,22.2c-1.21,3.7-2.79,7.17-4.23,9.21h-2.79c-3.4,0-6.42-2.64-8.31-8.23l-7.4-21.82c-.91-2.64-2.11-5.74-2.87-7.55-1.36,7.4-2.27,28.17-2.27,37.61h-3.62c-3.85,0-6.5-2.49-6.5-6.87,0-11.55,2.27-34.59,4.15-44.86h2.19c7.17,0,12.23,3.25,14.2,8.76l7.17,20.24c1.59,4.38,2.49,7.48,2.95,9.82.38-1.96.91-3.55,1.43-5.29l5.97-18.35c2.64-8.23,5.97-13.44,8.08-15.18h1.21c5.74,0,9.51,3.62,10.35,10.72.98,8.16,2.49,30.66,2.49,41.01h-3.93Z"/>
          <path class="cls-1" d="M819.65,7.02c0,2.42-1.81,5.36-5.89,5.36h-15.93v12.84h18.65v3.1c0,3.32-2.64,5.13-4.98,5.13h-13.29v22.05h-4.3c-3.78,0-6.04-1.96-6.04-6.04V11.78c0-6.42,2.57-8,8.61-8h23.18v3.25Z"/>
          <path class="cls-1" d="M835.13,10.72v16.16c4.61-6.8,9.21-13.9,14.88-19.94,2.72-2.95,3.85-3.17,7.85-3.17h7.1v.38c-4,4.08-14.27,16.39-19.48,23.79,4.83,7.02,9.51,14.88,16.08,20.47,1.51,1.21,2.57,1.74,4.08,2.11-.91,3.7-2.49,5.21-6.65,5.21-2.49,0-5.44-1.28-7.25-3.32-6.34-7.33-11.48-14.8-16.61-23.03v26.13h-3.4c-4.98,0-6.8-3.47-6.8-7.02V3.78h3.32c4.98,0,6.87,3.32,6.87,6.95Z"/>
          <path class="cls-1" d="M911.78,56.41c-13.74,0-25.83-9.97-25.83-26.13,0-15.25,10.65-27.41,28.32-27.41,9.67,0,13.89,5.36,13.89,10.2v3.55h-.38c-3.47-2.95-9.29-4.38-14.73-4.38-9.59,0-16.46,7.02-16.46,16.61,0,13.06,7.1,18.2,16.39,18.2,4.98,0,6.19-1.89,6.19-4.91v-4.15c0-3.32-.45-6.04-.75-7.55h5.29c2.87,0,5.29,2.49,5.29,4.76v8.31c0,7.78-4.3,12.91-17.22,12.91Z"/>
          <path class="cls-1" d="M993.79,55.5c-5.51,0-7.7-2.57-7.7-7.4v-15.71c0-6.72-3.02-9.59-7.48-9.59-4.08,0-6.87,2.87-6.87,8.46v24.24h-2.72c-4.46,0-7.4-2.57-7.4-7.4v-15.71c0-6.72-3.1-9.59-7.55-9.59-3.93,0-6.87,3.1-6.87,8.68v24.01h-2.72c-4.15,0-7.32-2.72-7.32-7.4v-15.78c0-11.1,5.81-18.5,18.12-18.5,5.29,0,9.44,2.42,12.38,6.34,2.34-3.78,6.8-6.34,11.71-6.34,9.36,0,16.92,5.66,16.92,17.22v24.47h-2.49Z"/>
          <path class="cls-1" d="M1025.44,56.41c-10.42,0-19.18-8.53-19.18-20.77V1.13h3.47c3.93,0,6.65,2.27,6.65,7.02v11.86c2.04-2.95,5.51-6.19,11.03-6.19,10.35,0,18.27,8.46,18.27,20.46s-7.85,22.13-20.24,22.13ZM1025.44,22.81c-5.13,0-8.99,5.06-8.99,11.4,0,9.36,4,13.22,10.04,13.22,5.06,0,8.68-4.83,8.68-11.4,0-9.89-3.55-13.21-9.74-13.21Z"/>
          <path class="cls-1" d="M1090.91,55.5c-3.02,0-6.04-2.42-6.04-6.95v-15.25h-20.84v22.2h-4c-3.47,0-6.27-2.42-6.27-6.95V3.78h5.06c2.95,0,5.14,2.49,5.14,5.44v15.41h20.92V3.78h4.68c2.64,0,5.51,2.11,5.51,5.44v46.29h-4.15Z"/>
        </g>
        <g>
          <path class="cls-1" d="M134.3,83.1l1.36,7.78,4.44-15.93h2.29l4.44,15.84,1.42-7.69,1.67-8.15h2.43l-4.24,19.24h-2.49l-4.41-15.73-4.41,15.73h-2.52l-4.21-19.24h2.57l1.67,8.15Z"/>
          <path class="cls-1" d="M158.32,76.77h-2.6v-2.6h2.6v2.6ZM158.17,94.19h-2.32v-14h2.32v14Z"/>
          <path class="cls-1" d="M170.54,82.23c-.85,0-1.67.15-2.48.45s-1.65.88-2.56,1.73v9.79h-2.32v-14h2.21v2.26c.96-.94,1.84-1.6,2.64-1.98.8-.38,1.64-.57,2.5-.57v2.32Z"/>
          <path class="cls-1" d="M183.15,92.41c1.89,0,2.83-.64,2.83-1.92,0-.55-.17-.98-.51-1.3-.34-.32-.96-.59-1.87-.82l-1.56-.4c-1.15-.28-2.01-.78-2.57-1.48-.57-.71-.85-1.55-.85-2.53,0-.72.16-1.38.48-1.99.32-.61.83-1.11,1.53-1.49.7-.38,1.6-.57,2.72-.57.72,0,1.45.08,2.19.24s1.5.43,2.28.81l-.74,1.95c-1.38-.62-2.62-.93-3.73-.93-1.64,0-2.46.61-2.46,1.84,0,.47.15.88.45,1.22.3.34.87.61,1.7.82l1.56.4c1.24.3,2.16.79,2.74,1.47.58.68.88,1.56.88,2.63,0,.77-.17,1.48-.5,2.11s-.86,1.13-1.58,1.48c-.73.36-1.7.54-2.93.54-.81,0-1.62-.08-2.42-.25-.8-.17-1.63-.44-2.48-.82l.62-1.92c.81.32,1.55.56,2.21.71.66.15,1.33.23,2.01.23Z"/>
          <path class="cls-1" d="M194.38,76.77h-2.6v-2.6h2.6v2.6ZM194.24,94.19h-2.32v-14h2.32v14Z"/>
          <path class="cls-1" d="M205.98,82.08c-.53,0-1.15.13-1.85.4-.71.26-1.56.8-2.56,1.61v10.1h-2.32v-14h2.21v1.95c1-.85,1.91-1.43,2.73-1.75.82-.32,1.61-.48,2.36-.48,1.3,0,2.3.41,2.98,1.23s1.03,1.99,1.03,3.49v9.56h-2.32v-9.22c0-1.92-.75-2.89-2.26-2.89Z"/>
          <path class="cls-1" d="M223.91,94.19v-1.95c-.87.83-1.66,1.41-2.36,1.74-.71.33-1.44.5-2.19.5-1.49,0-2.64-.57-3.44-1.7-.8-1.13-1.2-2.72-1.2-4.75v-1.64c0-1.98.5-3.55,1.48-4.72.99-1.17,2.43-1.75,4.31-1.75.55,0,1.09.06,1.64.17.55.11,1.09.27,1.64.48v-7.3h2.32v20.93h-2.21ZM217.12,88.02c0,1.47.23,2.55.69,3.24s1.16,1.03,2.08,1.03c.55,0,1.11-.14,1.7-.41.58-.27,1.32-.84,2.21-1.71v-7.47c-.55-.25-1.08-.42-1.58-.52-.51-.1-1.01-.16-1.5-.16-1.28,0-2.2.39-2.76,1.16-.56.77-.83,1.84-.83,3.2v1.64Z"/>
          <path class="cls-1" d="M245.81,94.19v-1.95c-.87.83-1.66,1.41-2.36,1.74-.71.33-1.44.5-2.19.5-1.49,0-2.64-.57-3.44-1.7-.8-1.13-1.2-2.72-1.2-4.75v-1.64c0-1.98.5-3.55,1.48-4.72.99-1.17,2.43-1.75,4.31-1.75.55,0,1.09.06,1.64.17.55.11,1.09.27,1.64.48v-7.3h2.32v20.93h-2.21ZM239.02,88.02c0,1.47.23,2.55.69,3.24s1.16,1.03,2.08,1.03c.55,0,1.11-.14,1.7-.41.58-.27,1.32-.84,2.21-1.71v-7.47c-.55-.25-1.08-.42-1.58-.52-.51-.1-1.01-.16-1.5-.16-1.28,0-2.2.39-2.76,1.16s-.83,1.84-.83,3.2v1.64Z"/>
          <path class="cls-1" d="M255.48,76.77h-2.6v-2.6h2.6v2.6ZM255.34,94.19h-2.32v-14h2.32v14Z"/>
          <path class="cls-1" d="M271.55,95.94c0,1.38-.56,2.48-1.68,3.31-1.12.83-2.66,1.25-4.62,1.25-.98,0-2-.13-3.07-.4-1.07-.26-2.07-.69-3.01-1.27l.79-1.81c.94.53,1.85.9,2.73,1.12s1.73.33,2.56.33c1.28,0,2.27-.21,2.97-.62.7-.42,1.05-.97,1.05-1.67,0-.51-.17-.9-.51-1.17-.34-.27-.89-.41-1.64-.41h-3.25c-1.23,0-2.11-.29-2.66-.88-.55-.58-.82-1.23-.82-1.92,0-.49.11-.98.34-1.46s.55-.96.96-1.43c-.66-.4-1.19-.94-1.58-1.63-.4-.69-.59-1.52-.59-2.5,0-1.08.23-1.97.69-2.69.46-.72,1.08-1.26,1.85-1.63.77-.37,1.64-.55,2.6-.55h.48c.66,0,1.26.09,1.81.28h5.04v2.07l-3.06-.42c.4.34.72.76.96,1.26.25.5.37,1.11.37,1.82,0,1.02-.23,1.88-.69,2.57-.46.7-1.08,1.23-1.85,1.6-.77.37-1.63.55-2.57.55h-.48c-.25,0-.48-.01-.71-.04s-.45-.06-.68-.1c-.55.6-.82,1.2-.82,1.78,0,.75.53,1.13,1.58,1.13h3.17c1.36,0,2.42.3,3.2.91.77.6,1.16,1.48,1.16,2.63ZM265.13,87.63c.74,0,1.39-.24,1.95-.71.57-.47.85-1.19.85-2.15s-.28-1.65-.85-2.14c-.57-.48-1.22-.72-1.95-.72h-.48c-.75,0-1.41.24-1.98.72-.57.48-.85,1.19-.85,2.14s.28,1.68.85,2.15c.57.47,1.23.71,1.98.71h.48Z"/>
          <path class="cls-1" d="M277.52,76.77h-2.6v-2.6h2.6v2.6ZM277.38,94.19h-2.32v-14h2.32v14Z"/>
          <path class="cls-1" d="M290.08,93.68c-1.06.53-2.18.79-3.37.79-1.02,0-1.82-.21-2.39-.62-.58-.41-.98-.97-1.22-1.67-.24-.7-.35-1.47-.35-2.32v-7.64h-2.43v-2.04h2.43v-3.9h2.32v3.9h4.58v2.04h-4.58v7.55c0,.98.17,1.66.5,2.02.33.37.84.55,1.54.55.34,0,.69-.04,1.06-.13s.77-.23,1.2-.44l.71,1.9Z"/>
          <path class="cls-1" d="M303.37,94.33c-.87,0-1.56-.2-2.08-.59-.52-.4-.88-.89-1.09-1.47-.92.81-1.76,1.38-2.52,1.71-.75.33-1.51.5-2.26.5-1.23,0-2.13-.4-2.72-1.19-.58-.79-.88-1.76-.88-2.91,0-.77.14-1.46.42-2.06.28-.6.76-1.08,1.44-1.43.68-.35,1.59-.52,2.74-.52.51,0,1.07.03,1.67.1.6.07,1.22.15,1.84.24v-1.9c0-1.06-.23-1.78-.69-2.16-.46-.39-1.14-.58-2.02-.58-1.21,0-2.55.33-4.04.99l-.74-1.92c.87-.4,1.7-.7,2.49-.91.79-.21,1.59-.31,2.4-.31,1.32,0,2.33.22,3.03.65.7.43,1.18,1.01,1.44,1.73.26.72.4,1.5.4,2.35v6.05c0,.43.08.8.25,1.09.17.29.51.44,1.02.44h.31v2.12h-.42ZM294.12,90.34c0,.64.15,1.16.45,1.56.3.4.74.59,1.3.59.49,0,1.06-.15,1.7-.44.64-.29,1.43-.88,2.38-1.77v-1.78c-1.28-.21-2.41-.31-3.39-.31-.87,0-1.49.18-1.87.54-.38.36-.57.9-.57,1.61Z"/>
          <path class="cls-1" d="M307.05,90.8v-17.54h2.32v17.42c0,.51.08.89.24,1.15.16.25.49.38.98.38h.45v2.12h-.65c-1.25,0-2.11-.33-2.6-.99s-.74-1.51-.74-2.55Z"/>
          <path class="cls-1" d="M324.7,93.37c-.85.42-1.7.7-2.55.86-.85.16-1.63.24-2.35.24-2.02,0-3.52-.58-4.51-1.73-.99-1.15-1.48-2.73-1.48-4.72v-1.7c0-1.94.5-3.5,1.48-4.67.99-1.17,2.39-1.75,4.2-1.75.96,0,1.84.19,2.64.58.8.39,1.44.97,1.92,1.75.48.78.72,1.79.72,3.01,0,.79-.11,1.7-.34,2.71h-8.34v.06c0,1.43.3,2.52.89,3.25.59.74,1.55,1.1,2.87,1.1.6,0,1.27-.08,1.99-.23.73-.15,1.44-.39,2.14-.71l.71,1.92ZM319.5,81.94c-1.09,0-1.92.35-2.48,1.06-.56.71-.86,1.7-.92,2.98h6.34c.06-.34.08-.66.08-.96,0-1.06-.3-1.83-.89-2.33-.59-.5-1.31-.75-2.14-.75Z"/>
          <path class="cls-1" d="M332.23,92.41c1.89,0,2.83-.64,2.83-1.92,0-.55-.17-.98-.51-1.3-.34-.32-.96-.59-1.87-.82l-1.56-.4c-1.15-.28-2.01-.78-2.57-1.48-.57-.71-.85-1.55-.85-2.53,0-.72.16-1.38.48-1.99.32-.61.83-1.11,1.53-1.49.7-.38,1.6-.57,2.72-.57.72,0,1.45.08,2.19.24.74.16,1.5.43,2.28.81l-.74,1.95c-1.38-.62-2.62-.93-3.73-.93-1.64,0-2.46.61-2.46,1.84,0,.47.15.88.45,1.22.3.34.87.61,1.7.82l1.56.4c1.25.3,2.16.79,2.74,1.47.58.68.88,1.56.88,2.63,0,.77-.17,1.48-.5,2.11s-.86,1.13-1.58,1.48c-.73.36-1.7.54-2.93.54-.81,0-1.62-.08-2.42-.25-.8-.17-1.63-.44-2.48-.82l.62-1.92c.81.32,1.55.56,2.21.71.66.15,1.33.23,2.01.23Z"/>
          <path class="cls-1" d="M350.13,86.67v7.52h-2.46v-19.24h6.03c1.81,0,3.21.48,4.2,1.43.99.95,1.49,2.22,1.49,3.8v1.22c0,1.13-.26,2.11-.78,2.94s-1.26,1.44-2.22,1.84c.81,1.3,1.57,2.62,2.26,3.96.7,1.34,1.34,2.69,1.92,4.04h-2.83c-1.08-2.56-2.33-5.07-3.76-7.52h-3.85ZM353.7,77.22h-3.56v7.19h3.56c.96,0,1.73-.27,2.29-.81.57-.54.85-1.27.85-2.19v-1.22c0-.94-.28-1.67-.85-2.19-.57-.52-1.33-.78-2.29-.78Z"/>
          <path class="cls-1" d="M374.32,93.37c-.85.42-1.7.7-2.55.86-.85.16-1.63.24-2.35.24-2.02,0-3.52-.58-4.51-1.73s-1.49-2.73-1.49-4.72v-1.7c0-1.94.5-3.5,1.49-4.67s2.39-1.75,4.2-1.75c.96,0,1.84.19,2.65.58.8.39,1.44.97,1.92,1.75.48.78.72,1.79.72,3.01,0,.79-.11,1.7-.34,2.71h-8.34v.06c0,1.43.3,2.52.89,3.25.59.74,1.55,1.1,2.87,1.1.6,0,1.27-.08,1.99-.23.73-.15,1.44-.39,2.14-.71l.71,1.92ZM369.11,81.94c-1.09,0-1.92.35-2.47,1.06-.56.71-.86,1.7-.92,2.98h6.34c.06-.34.08-.66.08-.96,0-1.06-.3-1.83-.89-2.33-.59-.5-1.31-.75-2.14-.75Z"/>
          <path class="cls-1" d="M380.06,86.35v1.67c0,1.43.26,2.51.79,3.24.53.73,1.37,1.09,2.52,1.09s2.35-.29,3.65-.88l.71,1.95c-1.55.7-3.05,1.05-4.5,1.05-1.81,0-3.19-.58-4.13-1.73s-1.41-2.73-1.41-4.72v-1.67c0-2,.47-3.57,1.41-4.72s2.32-1.73,4.13-1.73c.68,0,1.38.09,2.11.27.73.18,1.46.43,2.19.75l-.71,1.98c-.62-.26-1.22-.47-1.8-.62-.58-.15-1.13-.23-1.66-.23-1.15,0-1.99.36-2.52,1.09-.53.73-.79,1.8-.79,3.21Z"/>
          <path class="cls-1" d="M398.47,82.23c-.85,0-1.67.15-2.47.45-.8.3-1.66.88-2.56,1.73v9.79h-2.32v-14h2.21v2.26c.96-.94,1.84-1.6,2.65-1.98.8-.38,1.64-.57,2.5-.57v2.32Z"/>
          <path class="cls-1" d="M410.13,94.19v-1.98c-.98.85-1.86,1.44-2.63,1.77-.77.33-1.55.5-2.32.5-1.25,0-2.2-.41-2.86-1.23s-.99-1.98-.99-3.47v-9.59h2.32v9.25c0,.98.17,1.7.52,2.16.35.46.87.69,1.57.69.53,0,1.12-.13,1.78-.4.66-.26,1.48-.79,2.46-1.58v-10.13h2.32v14h-2.18Z"/>
          <path class="cls-1" d="M419.77,76.77h-2.6v-2.6h2.6v2.6ZM419.63,94.19h-2.32v-14h2.32v14Z"/>
          <path class="cls-1" d="M432.33,93.68c-1.06.53-2.18.79-3.37.79-1.02,0-1.82-.21-2.39-.62-.58-.41-.98-.97-1.22-1.67-.24-.7-.35-1.47-.35-2.32v-7.64h-2.43v-2.04h2.43v-3.9h2.32v3.9h4.58v2.04h-4.58v7.55c0,.98.17,1.66.5,2.02.33.37.84.55,1.54.55.34,0,.69-.04,1.06-.13.37-.08.77-.23,1.2-.44l.71,1.9Z"/>
          <path class="cls-1" d="M437.85,76.77h-2.6v-2.6h2.6v2.6ZM437.71,94.19h-2.32v-14h2.32v14Z"/>
          <path class="cls-1" d="M449.45,82.08c-.53,0-1.15.13-1.85.4s-1.56.8-2.56,1.61v10.1h-2.32v-14h2.21v1.95c1-.85,1.91-1.43,2.73-1.75.82-.32,1.61-.48,2.36-.48,1.3,0,2.3.41,2.98,1.23s1.03,1.99,1.03,3.49v9.56h-2.32v-9.22c0-1.92-.75-2.89-2.26-2.89Z"/>
          <path class="cls-1" d="M470.07,95.94c0,1.38-.56,2.48-1.68,3.31s-2.66,1.25-4.62,1.25c-.98,0-2-.13-3.07-.4-1.07-.26-2.07-.69-3.01-1.27l.79-1.81c.94.53,1.85.9,2.73,1.12s1.73.33,2.56.33c1.28,0,2.27-.21,2.97-.62.7-.42,1.05-.97,1.05-1.67,0-.51-.17-.9-.51-1.17-.34-.27-.89-.41-1.64-.41h-3.25c-1.23,0-2.11-.29-2.66-.88-.55-.58-.82-1.23-.82-1.92,0-.49.11-.98.34-1.46.23-.48.55-.96.96-1.43-.66-.4-1.19-.94-1.58-1.63-.4-.69-.59-1.52-.59-2.5,0-1.08.23-1.97.69-2.69.46-.72,1.08-1.26,1.85-1.63.77-.37,1.64-.55,2.6-.55h.48c.66,0,1.26.09,1.81.28h5.04v2.07l-3.05-.42c.4.34.72.76.96,1.26.25.5.37,1.11.37,1.82,0,1.02-.23,1.88-.69,2.57-.46.7-1.08,1.23-1.85,1.6-.77.37-1.63.55-2.57.55h-.48c-.25,0-.48-.01-.71-.04s-.45-.06-.68-.1c-.55.6-.82,1.2-.82,1.78,0,.75.53,1.13,1.58,1.13h3.17c1.36,0,2.42.3,3.2.91s1.16,1.48,1.16,2.63ZM463.65,87.63c.74,0,1.39-.24,1.95-.71.57-.47.85-1.19.85-2.15s-.28-1.65-.85-2.14c-.57-.48-1.22-.72-1.95-.72h-.48c-.75,0-1.41.24-1.98.72-.57.48-.85,1.19-.85,2.14s.28,1.68.85,2.15c.57.47,1.23.71,1.98.71h.48Z"/>
        </g>
      </g>
    </g>
  </g>
</svg>