<?xml version="1.0" encoding="UTF-8"?>
<!DOCTYPE svg PUBLIC "-//W3C//DTD SVG 1.1//EN" "http://www.w3.org/Graphics/SVG/1.1/DTD/svg11.dtd">
<svg xmlns="http://www.w3.org/2000/svg" version="1.1" width="32px" height="32px" style="shape-rendering:geometricPrecision; text-rendering:geometricPrecision; image-rendering:optimizeQuality; fill-rule:evenodd; clip-rule:evenodd" xmlns:xlink="http://www.w3.org/1999/xlink">
<g><path style="opacity:1" fill="#222a4e" d="M -0.5,-0.5 C 10.1667,-0.5 20.8333,-0.5 31.5,-0.5C 31.5,10.1667 31.5,20.8333 31.5,31.5C 20.8333,31.5 10.1667,31.5 -0.5,31.5C -0.5,20.8333 -0.5,10.1667 -0.5,-0.5 Z"/></g>
<g><path style="opacity:1" fill="#d6d6db" d="M 5.5,11.5 C 7.38411,11.7118 8.71745,12.7118 9.5,14.5C 10.2807,13.2634 11.2807,12.2634 12.5,11.5C 13.1924,12.0253 13.6924,12.6919 14,13.5C 15.4926,11.4402 17.3259,11.1068 19.5,12.5C 18.624,13.2508 17.624,13.7508 16.5,14C 20.4557,15.1139 20.4557,15.9473 16.5,16.5C 16.5,17.5 16.5,18.5 16.5,19.5C 14.2341,19.8588 12.4007,19.1922 11,17.5C 10.6924,18.3081 10.1924,18.9747 9.5,19.5C 8.41641,18.3349 7.58308,17.0016 7,15.5C 6.78107,16.938 6.28107,18.2713 5.5,19.5C 4.27058,16.8013 4.27058,14.1346 5.5,11.5 Z"/></g>
<g><path style="opacity:1" fill="#e4e5e8" d="M 20.5,11.5 C 21.7498,11.5774 22.5831,12.244 23,13.5C 26.7744,10.803 27.2744,11.303 24.5,15C 24.9504,16.2853 25.6171,17.452 26.5,18.5C 25.132,19.5937 23.9653,19.2603 23,17.5C 22.6924,18.3081 22.1924,18.9747 21.5,19.5C 20.52,16.9135 20.1866,14.2469 20.5,11.5 Z"/></g>
</svg>
